<?xml version="1.0" encoding="utf-8"?>
<!-- Generator: Adobe Illustrator 24.3.0, SVG Export Plug-In . SVG Version: 6.00 Build 0)  -->
<svg version="1.1" id="Layer_1" xmlns="http://www.w3.org/2000/svg" xmlns:xlink="http://www.w3.org/1999/xlink" x="0px" y="0px"
	 viewBox="0 0 200 200" enable-background="new 0 0 200 200" xml:space="preserve">
<path fill="#282828" d="M86.682,141.448l5.2,9.1c1.1,1.8,3.7,1.8,4.7,0l5.2-9.1c1.1-1.8-0.3-4.1-2.4-4.1h-10.3
	C86.982,137.348,85.682,139.648,86.682,141.448z"/>
<path fill="#282828" d="M94.782,146.648c-1.1,0-2-0.9-2-2v-26.7c-4,0-11.9,0.1-12.3,0.1c-12.3,0-22.1-9.8-22.1-22.3
	c0-10,6.6-18.7,16-21.4c0-0.2,0-0.3,0-0.5c0-14.8,11.9-26.8,26.7-26.8c14.7,0,26.6,12,26.6,26.8c0,0.3,0,0.5-0.1,0.7
	c8.9,2.9,14.7,11.2,14.7,21.2c0,12.1-10.5,22.3-23.3,22.3c-0.4,0-10.3,0-14.3-0.1v10.7c0,1.1-0.9,2-2,2c-1.1,0-2-0.9-2-2v-12.7
	c0-0.5,0-1,0.4-1.4c0.4-0.4,0.7-0.7,1.3-0.6c0,0,15.9,0.1,16.4,0.1c10.4,0,19.5-8.5,19.5-18.3c0-8.8-5.4-15.9-13.5-17.8
	c-1-0.2-1.6-1.1-1.5-2.1c0-0.4,0.1-0.8,0.2-1.3c0.1-0.3,0.1-0.6,0.1-0.7c0.1-12.6-10.1-22.8-22.6-22.8s-22.7,10.2-22.7,22.8
	c0,0.5,0,1.1,0.1,1.6c0.1,1-0.6,2.2-1.6,2.4c-8.4,1.7-14.5,9.2-14.5,17.9c0,10.2,7.9,18.3,18,18.3c0.5,0,14.1-0.1,14.1-0.1
	c0.5-0.1,1.3,0.2,1.6,0.6c0.4,0.4,0.8,0.9,0.8,1.4v28.7C96.782,145.748,95.882,146.648,94.782,146.648z"/>
</svg>
